<svg width="28" height="27" viewBox="0 0 28 27" fill="none" xmlns="http://www.w3.org/2000/svg">
<path d="M27.3334 13.5001C27.3334 17.0363 25.9287 20.4277 23.4282 22.9282C20.9277 25.4287 17.5363 26.8334 14.0001 26.8334C12.2491 26.8334 10.5153 26.4885 8.89763 25.8185C7.27996 25.1484 5.81011 24.1663 4.57199 22.9282C2.07151 20.4277 0.666748 17.0363 0.666748 13.5001C0.666748 9.96386 2.07151 6.57248 4.57199 4.07199C7.07248 1.57151 10.4639 0.166748 14.0001 0.166748C15.751 0.166748 17.4849 0.511625 19.1025 1.18169C20.7202 1.85175 22.1901 2.83388 23.4282 4.07199C24.6663 5.31011 25.6484 6.77996 26.3185 8.39763C26.9885 10.0153 27.3334 11.7491 27.3334 13.5001ZM24.6667 13.5001C24.6667 10.6711 23.5429 7.958 21.5426 5.95761C19.5422 3.95722 16.8291 2.83341 14.0001 2.83341C11.1711 2.83341 8.458 3.95722 6.45761 5.95761C4.45722 7.958 3.33341 10.6711 3.33341 13.5001C3.33341 16.3291 4.45722 19.0422 6.45761 21.0426C8.458 23.0429 11.1711 24.1667 14.0001 24.1667C16.8291 24.1667 19.5422 23.0429 21.5426 21.0426C23.5429 19.0422 24.6667 16.3291 24.6667 13.5001ZM9.46675 19.6334L15.6001 13.5001L9.46675 7.36675L11.3334 5.50008L19.3334 13.5001L11.3334 21.5001L9.46675 19.6334Z" fill="#285DB1"/>
</svg>
