<svg width="28" height="27" viewBox="0 0 28 27" fill="none" xmlns="http://www.w3.org/2000/svg">
<path d="M0.666588 13.5001C0.666588 17.0363 2.07134 20.4277 4.57183 22.9282C7.07232 25.4287 10.4637 26.8334 13.9999 26.8334C15.7509 26.8334 17.4847 26.4885 19.1024 25.8185C20.72 25.1484 22.1899 24.1663 23.428 22.9282C25.9285 20.4277 27.3333 17.0363 27.3333 13.5001C27.3333 9.96386 25.9285 6.57248 23.428 4.07199C20.9275 1.57151 17.5361 0.166748 13.9999 0.166748C12.249 0.166748 10.5151 0.511625 8.89747 1.18169C7.2798 1.85175 5.80994 2.83388 4.57183 4.07199C3.33372 5.31011 2.35159 6.77996 1.68152 8.39763C1.01146 10.0153 0.666588 11.7491 0.666588 13.5001ZM3.33325 13.5001C3.33325 10.6711 4.45706 7.958 6.45745 5.95761C8.45783 3.95722 11.1709 2.83341 13.9999 2.83341C16.8289 2.83341 19.542 3.95722 21.5424 5.95761C23.5428 7.958 24.6666 10.6711 24.6666 13.5001C24.6666 16.3291 23.5428 19.0422 21.5424 21.0426C19.542 23.0429 16.8289 24.1667 13.9999 24.1667C11.1709 24.1667 8.45783 23.0429 6.45745 21.0426C4.45706 19.0422 3.33325 16.3291 3.33325 13.5001ZM18.5333 19.6334L12.3999 13.5001L18.5333 7.36675L16.6666 5.50008L8.66659 13.5001L16.6666 21.5001L18.5333 19.6334Z" fill="#285DB1"/>
</svg>
