<svg width="197" height="35" viewBox="0 0 197 35" fill="none" xmlns="http://www.w3.org/2000/svg">
<g filter="url(#filter0_d_3_1823)">
<path d="M2.44 4.448H18.312V8.928H12.584V28H7.944V8.928H2.44V4.448ZM21.5233 28.384C20.2219 28.384 19.0379 28.128 17.9713 27.616C16.9259 27.0827 16.0939 26.272 15.4753 25.184C14.8566 24.096 14.5473 22.7093 14.5473 21.024C14.5473 19.4453 14.8673 18.08 15.5073 16.928C16.1473 15.776 16.9899 14.8907 18.0353 14.272C19.0806 13.632 20.1899 13.312 21.3633 13.312C22.7499 13.312 23.7953 13.5467 24.4993 14.016C25.2246 14.464 25.8219 14.9653 26.2913 15.52L26.0993 16.064L26.5153 14.016H30.6753V28H26.1953V24.96L26.5473 25.92C26.5046 25.92 26.3766 26.048 26.1633 26.304C25.9499 26.5387 25.6299 26.8267 25.2033 27.168C24.7979 27.488 24.2859 27.7653 23.6673 28C23.0699 28.256 22.3553 28.384 21.5233 28.384ZM22.8033 24.736C23.3366 24.736 23.8166 24.6613 24.2433 24.512C24.6699 24.3413 25.0433 24.1067 25.3633 23.808C25.6833 23.488 25.9606 23.0933 26.1953 22.624V19.2C26.0246 18.7307 25.7686 18.336 25.4273 18.016C25.0859 17.6747 24.6806 17.4187 24.2113 17.248C23.7419 17.056 23.2193 16.96 22.6433 16.96C22.0033 16.96 21.4059 17.1307 20.8513 17.472C20.3179 17.792 19.8913 18.24 19.5713 18.816C19.2513 19.392 19.0913 20.0533 19.0913 20.8C19.0913 21.5467 19.2619 22.2187 19.6033 22.816C19.9446 23.4133 20.3926 23.8827 20.9473 24.224C21.5233 24.5653 22.1419 24.736 22.8033 24.736ZM32.0915 28V2.752H36.5715V28H32.0915ZM40.1235 18.496L46.4595 28H41.2435L37.1795 21.056L40.1235 18.496ZM35.2275 24.128L34.7795 19.872L43.2275 13.664L45.9475 16.064L35.2275 24.128ZM46.3603 28V2.752H50.8403V28H46.3603ZM54.3923 18.496L60.7283 28H55.5123L51.4483 21.056L54.3923 18.496ZM49.4963 24.128L49.0483 19.872L57.4963 13.664L60.2163 16.064L49.4963 24.128ZM67.1653 28.384C65.4586 28.384 64.0079 28.064 62.8133 27.424C61.6399 26.784 60.7439 25.8987 60.1253 24.768C59.5066 23.6373 59.1973 22.336 59.1973 20.864C59.1973 19.456 59.5599 18.1867 60.2853 17.056C61.0106 15.9253 61.9813 15.0293 63.1973 14.368C64.4133 13.6853 65.7679 13.344 67.2613 13.344C69.2666 13.344 70.9093 13.9307 72.1893 15.104C73.4906 16.256 74.3333 17.9307 74.7173 20.128L63.8373 23.584L62.8453 21.152L70.7173 18.496L69.7893 18.912C69.6186 18.3573 69.3093 17.8773 68.8613 17.472C68.4346 17.0453 67.7839 16.832 66.9093 16.832C66.2479 16.832 65.6613 16.992 65.1493 17.312C64.6586 17.6107 64.2746 18.048 63.9973 18.624C63.7413 19.1787 63.6133 19.84 63.6133 20.608C63.6133 21.4827 63.7733 22.2187 64.0933 22.816C64.4133 23.392 64.8506 23.8293 65.4053 24.128C65.9599 24.4267 66.5786 24.576 67.2613 24.576C67.7519 24.576 68.2213 24.4907 68.6693 24.32C69.1386 24.1493 69.5973 23.9253 70.0453 23.648L72.0293 26.976C71.2826 27.4027 70.4719 27.744 69.5973 28C68.7439 28.256 67.9333 28.384 67.1653 28.384ZM78.8368 14.016L79.1888 16.512L79.1248 16.288C79.6154 15.4133 80.3088 14.7093 81.2048 14.176C82.1008 13.6213 83.1994 13.344 84.5008 13.344C85.8234 13.344 86.9221 13.7387 87.7968 14.528C88.6928 15.296 89.1514 16.2987 89.1728 17.536V28H84.6928V19.2C84.6714 18.5813 84.5008 18.0907 84.1808 17.728C83.8821 17.344 83.3701 17.152 82.6448 17.152C81.9621 17.152 81.3648 17.376 80.8528 17.824C80.3408 18.272 79.9461 18.88 79.6688 19.648C79.3914 20.416 79.2528 21.3013 79.2528 22.304V28H74.7728V14.016H78.8368ZM118.323 4.448V28H113.683V18.432H103.155V28H98.515V4.448H103.155V13.952H113.683V4.448H118.323ZM126.342 28.384C125.041 28.384 123.857 28.128 122.79 27.616C121.745 27.0827 120.913 26.272 120.294 25.184C119.675 24.096 119.366 22.7093 119.366 21.024C119.366 19.4453 119.686 18.08 120.326 16.928C120.966 15.776 121.809 14.8907 122.854 14.272C123.899 13.632 125.009 13.312 126.182 13.312C127.569 13.312 128.614 13.5467 129.318 14.016C130.043 14.464 130.641 14.9653 131.11 15.52L130.918 16.064L131.334 14.016H135.494V28H131.014V24.96L131.366 25.92C131.323 25.92 131.195 26.048 130.982 26.304C130.769 26.5387 130.449 26.8267 130.022 27.168C129.617 27.488 129.105 27.7653 128.486 28C127.889 28.256 127.174 28.384 126.342 28.384ZM127.622 24.736C128.155 24.736 128.635 24.6613 129.062 24.512C129.489 24.3413 129.862 24.1067 130.182 23.808C130.502 23.488 130.779 23.0933 131.014 22.624V19.2C130.843 18.7307 130.587 18.336 130.246 18.016C129.905 17.6747 129.499 17.4187 129.03 17.248C128.561 17.056 128.038 16.96 127.462 16.96C126.822 16.96 126.225 17.1307 125.67 17.472C125.137 17.792 124.71 18.24 124.39 18.816C124.07 19.392 123.91 20.0533 123.91 20.8C123.91 21.5467 124.081 22.2187 124.422 22.816C124.763 23.4133 125.211 23.8827 125.766 24.224C126.342 24.5653 126.961 24.736 127.622 24.736ZM140.974 14.016L141.326 16.512L141.262 16.288C141.753 15.4133 142.446 14.7093 143.342 14.176C144.238 13.6213 145.337 13.344 146.638 13.344C147.961 13.344 149.06 13.7387 149.934 14.528C150.83 15.296 151.289 16.2987 151.31 17.536V28H146.83V19.2C146.809 18.5813 146.638 18.0907 146.318 17.728C146.02 17.344 145.508 17.152 144.782 17.152C144.1 17.152 143.502 17.376 142.99 17.824C142.478 18.272 142.084 18.88 141.806 19.648C141.529 20.416 141.39 21.3013 141.39 22.304V28H136.91V14.016H140.974ZM161.894 28.384C160.721 28.384 159.729 28.192 158.918 27.808C158.129 27.4027 157.436 26.88 156.838 26.24L157.19 25.28V28H152.71V2.752H157.158V16.416V14.976C157.713 14.5067 158.449 14.112 159.366 13.792C160.284 13.472 161.329 13.312 162.502 13.312C163.718 13.312 164.828 13.6 165.83 14.176C166.833 14.752 167.633 15.5947 168.23 16.704C168.849 17.792 169.158 19.1253 169.158 20.704C169.158 22.2827 168.817 23.648 168.134 24.8C167.473 25.952 166.588 26.8373 165.478 27.456C164.369 28.0747 163.174 28.384 161.894 28.384ZM160.902 24.608C161.564 24.608 162.172 24.4373 162.726 24.096C163.302 23.7547 163.761 23.2853 164.102 22.688C164.444 22.0907 164.614 21.4187 164.614 20.672C164.614 19.9253 164.444 19.264 164.102 18.688C163.761 18.112 163.302 17.664 162.726 17.344C162.172 17.0027 161.564 16.832 160.902 16.832C160.326 16.832 159.782 16.928 159.27 17.12C158.78 17.2907 158.353 17.5467 157.99 17.888C157.649 18.208 157.382 18.6027 157.19 19.072V22.496C157.446 22.9653 157.745 23.36 158.086 23.68C158.449 23.9787 158.865 24.2133 159.334 24.384C159.804 24.5333 160.326 24.608 160.902 24.608ZM175.367 28.384C174.066 28.384 172.882 28.128 171.815 27.616C170.77 27.0827 169.938 26.272 169.319 25.184C168.7 24.096 168.391 22.7093 168.391 21.024C168.391 19.4453 168.711 18.08 169.351 16.928C169.991 15.776 170.834 14.8907 171.879 14.272C172.924 13.632 174.034 13.312 175.207 13.312C176.594 13.312 177.639 13.5467 178.343 14.016C179.068 14.464 179.666 14.9653 180.135 15.52L179.943 16.064L180.359 14.016H184.519V28H180.039V24.96L180.391 25.92C180.348 25.92 180.22 26.048 180.007 26.304C179.794 26.5387 179.474 26.8267 179.047 27.168C178.642 27.488 178.13 27.7653 177.511 28C176.914 28.256 176.199 28.384 175.367 28.384ZM176.647 24.736C177.18 24.736 177.66 24.6613 178.087 24.512C178.514 24.3413 178.887 24.1067 179.207 23.808C179.527 23.488 179.804 23.0933 180.039 22.624V19.2C179.868 18.7307 179.612 18.336 179.271 18.016C178.93 17.6747 178.524 17.4187 178.055 17.248C177.586 17.056 177.063 16.96 176.487 16.96C175.847 16.96 175.25 17.1307 174.695 17.472C174.162 17.792 173.735 18.24 173.415 18.816C173.095 19.392 172.935 20.0533 172.935 20.8C172.935 21.5467 173.106 22.2187 173.447 22.816C173.788 23.4133 174.236 23.8827 174.791 24.224C175.367 24.5653 175.986 24.736 176.647 24.736ZM185.935 14.016H190.415V28H185.935V14.016ZM185.839 9.056C185.839 8.39467 186.095 7.85067 186.607 7.424C187.141 6.99733 187.706 6.784 188.303 6.784C188.901 6.784 189.445 6.99733 189.935 7.424C190.447 7.85067 190.703 8.39467 190.703 9.056C190.703 9.71733 190.447 10.2613 189.935 10.688C189.445 11.0933 188.901 11.296 188.303 11.296C187.706 11.296 187.141 11.0933 186.607 10.688C186.095 10.2613 185.839 9.71733 185.839 9.056Z" fill="white"/>
</g>
<defs>
<filter id="filter0_d_3_1823" x="0.439941" y="0.751984" width="196.263" height="33.632" filterUnits="userSpaceOnUse" color-interpolation-filters="sRGB">
<feFlood flood-opacity="0" result="BackgroundImageFix"/>
<feColorMatrix in="SourceAlpha" type="matrix" values="0 0 0 0 0 0 0 0 0 0 0 0 0 0 0 0 0 0 127 0" result="hardAlpha"/>
<feOffset dx="2" dy="2"/>
<feGaussianBlur stdDeviation="2"/>
<feComposite in2="hardAlpha" operator="out"/>
<feColorMatrix type="matrix" values="0 0 0 0 0 0 0 0 0 0 0 0 0 0 0 0 0 0 0.25 0"/>
<feBlend mode="normal" in2="BackgroundImageFix" result="effect1_dropShadow_3_1823"/>
<feBlend mode="normal" in="SourceGraphic" in2="effect1_dropShadow_3_1823" result="shape"/>
</filter>
</defs>
</svg>
